<svg id="visual" viewBox="0 0 900 150" width="900" height="150" xmlns="http://www.w3.org/2000/svg" xmlns:xlink="http://www.w3.org/1999/xlink" version="1.1"><rect x="0" y="0" width="900" height="150" fill="#3D405B"></rect><path d="M0 97L37.5 96.7C75 96.3 150 95.7 225 92.5C300 89.3 375 83.7 450 80.7C525 77.7 600 77.3 675 77.7C750 78 825 79 862.5 79.5L900 80L900 151L862.5 151C825 151 750 151 675 151C600 151 525 151 450 151C375 151 300 151 225 151C150 151 75 151 37.5 151L0 151Z" fill="#f4f1de"></path><path d="M0 108L37.5 105.3C75 102.7 150 97.3 225 97.8C300 98.3 375 104.7 450 108C525 111.3 600 111.7 675 110.8C750 110 825 108 862.5 107L900 106L900 151L862.5 151C825 151 750 151 675 151C600 151 525 151 450 151C375 151 300 151 225 151C150 151 75 151 37.5 151L0 151Z" fill="#ead7b4"></path><path d="M0 111L37.5 111.2C75 111.3 150 111.7 225 113.5C300 115.3 375 118.7 450 117.8C525 117 600 112 675 109.3C750 106.7 825 106.3 862.5 106.2L900 106L900 151L862.5 151C825 151 750 151 675 151C600 151 525 151 450 151C375 151 300 151 225 151C150 151 75 151 37.5 151L0 151Z" fill="#e5bb8f"></path><path d="M0 123L37.5 121.5C75 120 150 117 225 116C300 115 375 116 450 116.5C525 117 600 117 675 119.2C750 121.3 825 125.7 862.5 127.8L900 130L900 151L862.5 151C825 151 750 151 675 151C600 151 525 151 450 151C375 151 300 151 225 151C150 151 75 151 37.5 151L0 151Z" fill="#e39c72"></path><path d="M0 135L37.5 134C75 133 150 131 225 130.5C300 130 375 131 450 130.8C525 130.7 600 129.3 675 128.8C750 128.3 825 128.7 862.5 128.8L900 129L900 151L862.5 151C825 151 750 151 675 151C600 151 525 151 450 151C375 151 300 151 225 151C150 151 75 151 37.5 151L0 151Z" fill="#e07a5f"></path></svg>