<svg id="visual" viewBox="0 0 2800 200" width="2800" height="200" xmlns="http://www.w3.org/2000/svg" xmlns:xlink="http://www.w3.org/1999/xlink" version="1.1"><path d="M0 41L42.5 37.7C85 34.3 170 27.7 254.8 27.3C339.7 27 424.3 33 509.2 34.7C594 36.3 679 33.7 763.8 33.3C848.7 33 933.3 35 1018.2 34.3C1103 33.7 1188 30.3 1272.8 31C1357.7 31.7 1442.3 36.3 1527.2 36C1612 35.7 1697 30.3 1781.8 29.7C1866.7 29 1951.3 33 2036.2 35C2121 37 2206 37 2290.8 37.3C2375.7 37.7 2460.3 38.3 2545.2 36C2630 33.7 2715 28.3 2757.5 25.7L2800 23L2800 0L2757.5 0C2715 0 2630 0 2545.2 0C2460.3 0 2375.7 0 2290.8 0C2206 0 2121 0 2036.2 0C1951.3 0 1866.7 0 1781.8 0C1697 0 1612 0 1527.2 0C1442.3 0 1357.7 0 1272.8 0C1188 0 1103 0 1018.2 0C933.3 0 848.7 0 763.8 0C679 0 594 0 509.2 0C424.3 0 339.7 0 254.8 0C170 0 85 0 42.5 0L0 0Z" fill="#f3cabf"></path><path d="M0 67L42.5 68C85 69 170 71 254.8 69.7C339.7 68.3 424.3 63.7 509.2 62.7C594 61.7 679 64.3 763.8 69.7C848.7 75 933.3 83 1018.2 80.3C1103 77.7 1188 64.3 1272.8 60C1357.7 55.7 1442.3 60.3 1527.2 60.3C1612 60.3 1697 55.7 1781.8 54.3C1866.7 53 1951.3 55 2036.2 58.3C2121 61.7 2206 66.3 2290.8 71C2375.7 75.7 2460.3 80.3 2545.2 77C2630 73.7 2715 62.3 2757.5 56.7L2800 51L2800 21L2757.5 23.7C2715 26.3 2630 31.7 2545.2 34C2460.3 36.3 2375.7 35.7 2290.8 35.3C2206 35 2121 35 2036.2 33C1951.3 31 1866.7 27 1781.8 27.7C1697 28.3 1612 33.7 1527.2 34C1442.3 34.3 1357.7 29.7 1272.8 29C1188 28.3 1103 31.7 1018.2 32.3C933.3 33 848.7 31 763.8 31.3C679 31.7 594 34.3 509.2 32.7C424.3 31 339.7 25 254.8 25.3C170 25.7 85 32.3 42.5 35.7L0 39Z" fill="#e9d2bc"></path><path d="M0 151L42.5 148.7C85 146.3 170 141.7 254.8 138.3C339.7 135 424.3 133 509.2 132.7C594 132.3 679 133.7 763.8 135.3C848.7 137 933.3 139 1018.2 136C1103 133 1188 125 1272.8 122C1357.7 119 1442.3 121 1527.2 122C1612 123 1697 123 1781.8 126C1866.7 129 1951.3 135 2036.2 131.7C2121 128.3 2206 115.7 2290.8 114.3C2375.7 113 2460.3 123 2545.2 128C2630 133 2715 133 2757.5 133L2800 133L2800 49L2757.5 54.7C2715 60.3 2630 71.7 2545.2 75C2460.3 78.3 2375.7 73.7 2290.8 69C2206 64.3 2121 59.7 2036.2 56.3C1951.3 53 1866.7 51 1781.8 52.3C1697 53.7 1612 58.3 1527.2 58.3C1442.3 58.3 1357.7 53.7 1272.8 58C1188 62.3 1103 75.7 1018.2 78.3C933.3 81 848.7 73 763.8 67.7C679 62.3 594 59.7 509.2 60.7C424.3 61.7 339.7 66.3 254.8 67.7C170 69 85 67 42.5 66L0 65Z" fill="#ddd9c1"></path><path d="M0 163L42.5 161.7C85 160.3 170 157.7 254.8 157C339.7 156.3 424.3 157.7 509.2 157.3C594 157 679 155 763.8 154.3C848.7 153.7 933.3 154.3 1018.2 154C1103 153.7 1188 152.3 1272.8 150C1357.7 147.7 1442.3 144.3 1527.2 144C1612 143.7 1697 146.3 1781.8 152C1866.7 157.7 1951.3 166.3 2036.2 164.3C2121 162.3 2206 149.7 2290.8 146.7C2375.7 143.7 2460.3 150.3 2545.2 153.3C2630 156.3 2715 155.7 2757.5 155.3L2800 155L2800 131L2757.5 131C2715 131 2630 131 2545.2 126C2460.3 121 2375.7 111 2290.8 112.3C2206 113.7 2121 126.3 2036.2 129.7C1951.3 133 1866.7 127 1781.8 124C1697 121 1612 121 1527.2 120C1442.3 119 1357.7 117 1272.8 120C1188 123 1103 131 1018.2 134C933.3 137 848.7 135 763.8 133.3C679 131.7 594 130.3 509.2 130.7C424.3 131 339.7 133 254.8 136.3C170 139.7 85 144.3 42.5 146.7L0 149Z" fill="#d3dfcc"></path><path d="M0 201L42.5 201C85 201 170 201 254.8 201C339.7 201 424.3 201 509.2 201C594 201 679 201 763.8 201C848.7 201 933.3 201 1018.2 201C1103 201 1188 201 1272.8 201C1357.7 201 1442.3 201 1527.2 201C1612 201 1697 201 1781.8 201C1866.7 201 1951.3 201 2036.2 201C2121 201 2206 201 2290.8 201C2375.7 201 2460.3 201 2545.2 201C2630 201 2715 201 2757.5 201L2800 201L2800 153L2757.5 153.3C2715 153.7 2630 154.3 2545.2 151.3C2460.3 148.3 2375.7 141.7 2290.8 144.7C2206 147.7 2121 160.3 2036.2 162.3C1951.3 164.3 1866.7 155.7 1781.8 150C1697 144.3 1612 141.7 1527.2 142C1442.3 142.3 1357.7 145.7 1272.8 148C1188 150.3 1103 151.7 1018.2 152C933.3 152.3 848.7 151.7 763.8 152.3C679 153 594 155 509.2 155.3C424.3 155.7 339.7 154.3 254.8 155C170 155.7 85 158.3 42.5 159.7L0 161Z" fill="#d0e2d9"></path></svg>